<svg width="423" height="453" viewBox="0 0 423 453" fill="none" xmlns="http://www.w3.org/2000/svg">
<rect width="422.998" height="451.819" fill="black" fill-opacity="0" transform="translate(-0.000976562 0.998047)"/>
<ellipse cx="228.914" cy="274.909" rx="179.153" ry="177.909" fill="#F7F8FD"/>
<path d="M189.549 63.2706C197.518 74.2719 239.189 113.512 244.492 142.363C250.353 174.246 230.51 203.623 218.106 231.393L213.069 229.019C213.069 229.019 208.257 217.828 201.33 214.08C198.615 212.61 195.646 212.58 194.091 215.77C191.855 224.697 174.247 244.507 162.894 237.769C160.461 236.326 177.688 217.564 182.341 208.84C175.825 217.006 151.629 232.725 134.041 224.474C125.239 220.346 160.506 209.554 172.333 195.244C170.398 196.648 162.644 199.721 151.091 202.327C138.405 205.189 118.09 202.836 110.604 191.972C106.778 186.419 146.102 189.521 160.779 179.638C148.343 182.78 104.855 172.153 96.9382 155.971C94.035 150.036 120.319 157.268 137.555 158.745C143.946 159.293 153.886 157.136 159.137 155.695C140.192 156.517 122.882 148.723 110.998 134.235C108.827 131.124 96.4505 114.978 102.651 112.329C108.545 109.811 125.751 123.303 135.154 127.789C142.675 131.378 158.285 133.495 163.325 133.022C144.701 130.236 131.964 121.392 120.826 106.708C113.083 96.4999 110.681 80.4525 114.876 78.0203C119.8 75.1658 130.714 92.8874 142.638 100.51C152.176 106.609 163.904 111.491 168.576 113.169C156.584 106.483 123.379 80.332 135.287 47.476C137.376 41.7127 147.158 61.6299 152.213 70.6452C156.256 77.8574 172.033 89.8817 179.416 94.9923C167.592 85.1573 139.394 43.3503 161.784 3.04349C164.752 -2.30053 169.813 26.4024 172.193 34.3783C174.917 43.5064 180.516 50.8006 189.549 63.2706Z" fill="white" stroke="#E4E4E4" stroke-width="2" stroke-linejoin="round"/>
<path d="M182.06 209.277C179.368 227.35 178.973 228.996 187.423 233.89C187.185 235.628 187.595 237.272 187.933 239.423C186.37 240.812 185.927 241.023 185.162 243.882C179.583 245.005 170.295 246.642 163.717 241.826C157.139 237.011 151.263 226.444 149.576 220.503C149.104 230.031 134.443 252.879 121.56 248.308C118.8 247.329 132.51 224.789 135.477 214.982C130.506 224.595 109.109 245.442 89.5932 240.585C79.8265 238.155 113.454 220.096 122.579 203.167C120.897 204.983 113.644 209.666 102.442 214.638C90.1396 220.097 69.0427 221.786 59.2555 212.241C54.2538 207.364 94.7976 202.617 107.707 189.618C95.7152 195.312 49.4289 193.242 38.1333 178.376C33.9911 172.925 62.13 174.998 79.9239 173.037C86.5223 172.31 96.1782 168.119 101.219 165.599C82.1521 170.241 63.0105 165.794 48.0288 153.448C45.1989 150.721 29.3835 136.788 35.1447 132.848C40.6204 129.103 60.8047 139.367 71.2528 142.04C79.6112 144.178 95.8835 143.195 100.904 141.701C81.4374 142.61 66.7263 136.176 52.4625 123.48C42.5469 114.655 36.8769 98.8188 40.646 95.5025C45.0694 91.6104 59.7178 107.439 73.3568 112.796C84.2681 117.081 97.1569 119.689 102.237 120.457C88.7169 116.067 49.7433 96.145 55.215 60.3404C56.1748 54.0598 70.1166 72.3487 77.0629 80.5011C82.62 87.023 101.057 96.0812 109.581 99.795C95.5975 92.169 58.5536 55.3196 73.1656 9.83212C75.1029 3.80124 86.0203 31.9733 90.0428 39.606C94.6464 48.3413 101.799 54.6341 113.48 65.5004C123.785 75.0868 173.989 106.619 185.183 134.893C196.376 163.166 185.426 186.686 182.06 209.277Z" fill="white" stroke="#E4E4E4" stroke-width="2" stroke-linejoin="round"/>
<path d="M199.785 213.391C206.087 215.002 211.015 224.625 212.692 229.235L226.612 234.874C255.949 224.743 270.384 221.733 280.184 237.518C295.942 236.74 298.848 245.8 285.165 258.811C284.261 260.128 284.803 261.296 285.794 263.392C285.794 263.392 285.812 264.827 285.116 266.274C284.421 267.721 285.141 268.539 285.162 269.861C285.193 272.38 284.486 273.447 282.658 275.07L286.994 279.299C289.996 279.231 291.489 279.71 293.602 282.483C295.541 285.119 295.273 286.362 294.249 288.499L299.614 295.005C302.468 294.955 304.183 295.068 306.351 297.182C307.592 299.518 307.313 300.892 306.851 302.77L312.781 308.836C336.387 297.824 349.171 292.45 362.213 300.217C376.422 314.698 379.787 326.374 374.479 355.678C339.64 371.124 309.301 364.418 285.165 354.95C255.662 343.378 228.292 306.43 200.299 292.745C188.876 287.16 171.685 281.548 154.657 280.049C151.896 280.909 150.848 281.944 150.151 285.007C170.078 285.608 181.977 288.577 204.878 299.972C221.439 308.212 231.962 330.49 275.406 356.416C301.132 369.882 329.12 381.587 360.356 379.172L364.366 391.442L374.642 402.454C342.838 416.358 290.087 391.571 222.382 351.896C221.115 336.837 217.592 328.531 203.772 314.054L190.475 335.095L132.72 306.551C134.911 301.922 136.151 299.195 138.164 296.698C141.993 294.515 144.813 291.41 150.151 285.007C150.848 281.944 151.896 280.909 154.657 280.049C158.839 260.25 164.806 251.86 185.04 244.071C185.415 241.461 185.977 240.392 187.692 239.289C187.017 231.371 188.434 227.671 193.758 222.25C193.141 218.626 193.483 211.78 199.785 213.391Z" fill="white"/>
<path d="M154.657 280.049C158.839 260.25 164.806 251.86 185.04 244.071C185.415 241.461 185.977 240.392 187.692 239.289C187.017 231.371 188.434 227.671 193.758 222.25C193.141 218.626 193.483 211.78 199.785 213.391C206.087 215.002 211.015 224.625 212.692 229.235L226.612 234.874C255.949 224.743 270.384 221.733 280.184 237.518C295.942 236.74 298.848 245.8 285.165 258.811C284.261 260.128 284.803 261.296 285.794 263.392C285.794 263.392 285.812 264.827 285.116 266.274C284.421 267.721 285.141 268.539 285.162 269.861C285.193 272.38 284.486 273.447 282.658 275.07L286.994 279.299C289.996 279.231 291.489 279.71 293.602 282.483C295.541 285.119 295.273 286.362 294.249 288.499L299.614 295.005C302.468 294.955 304.183 295.068 306.351 297.182C307.592 299.518 307.313 300.892 306.851 302.77L312.781 308.836C336.387 297.824 349.171 292.45 362.213 300.217C376.422 314.698 379.787 326.374 374.479 355.678C339.64 371.124 309.301 364.418 285.165 354.95C255.662 343.378 228.292 306.43 200.299 292.745C188.876 287.16 171.685 281.548 154.657 280.049ZM154.657 280.049C151.896 280.909 150.848 281.944 150.151 285.007M150.151 285.007C144.813 291.41 141.993 294.515 138.164 296.698C136.151 299.195 134.911 301.922 132.72 306.551L190.475 335.095L203.772 314.054C217.592 328.531 221.115 336.837 222.382 351.896C290.087 391.571 342.838 416.358 374.642 402.454L364.366 391.442L360.356 379.172C329.12 381.587 301.132 369.882 275.406 356.416C231.962 330.49 221.439 308.212 204.878 299.972C181.977 288.577 170.078 285.608 150.151 285.007Z" stroke="#D7CED5" stroke-width="2"/>
<path d="M325.409 303.227C321.034 307.21 311.633 317.685 307.939 329.355C304.246 341.026 303.318 346.123 303.315 347.213" stroke="#D7CED5" stroke-width="2" stroke-linecap="round"/>
<path d="M313.214 308.686C297.342 319.007 292.686 330.087 286.255 355.938" stroke="#D7CED5" stroke-width="2"/>
<path d="M284.757 259.682C270.351 254.148 263.526 255.322 252.511 261.253C250.309 264.518 251.056 265.619 253.585 267.118C265.747 262.886 272.605 261.594 285.126 266.276" stroke="#D7CED5" stroke-width="2"/>
<path d="M287.713 279.287C273.309 280.545 267.065 283.861 258.643 294.866C256.921 297.708 260.589 301.863 263.285 300.667C273.612 290.86 280.964 287.442 294.534 287.921" stroke="#D7CED5" stroke-width="2"/>
<path d="M300.334 294.992C291.352 296.011 285.656 297.45 277.234 308.456C273.006 312.835 275.803 319.53 280.912 317.001C289.062 306.67 297.145 302.365 307.136 302.189" stroke="#D7CED5" stroke-width="2"/>
<path d="M297.529 361.969L296.354 358.574L295.492 362.118" stroke="#D7CED5" stroke-width="2"/>
<path d="M349.802 379.581L348.688 375.189L347.229 379.55" stroke="#D7CED5" stroke-width="2"/>
<path d="M341.868 379.008L341.119 374.537L339.308 378.763" stroke="#D7CED5" stroke-width="2"/>
<path d="M332.682 377.594L332.189 373.086L330.14 377.202" stroke="#D7CED5" stroke-width="2"/>
<path d="M320.581 374.897L320.619 370.359L318.104 374.207" stroke="#D7CED5" stroke-width="2"/>
<path d="M307.564 370.893L307.977 366.373L305.153 369.999" stroke="#D7CED5" stroke-width="2"/>
<path d="M294.352 365.167L294.742 361.465L292.381 364.463" stroke="#D7CED5" stroke-width="2"/>
<path d="M147.343 288.643C155.768 288.782 176.607 290.625 192.562 296.888C212.506 304.716 234.001 333.611 252.86 345.907C271.718 358.202 301.938 377.043 323.533 379.963C340.809 382.299 355.787 382.791 361.116 382.746" stroke="#D7CED5" stroke-linecap="round" stroke-dasharray="3 3"/>
<path d="M195.042 218.07C196.208 217.202 199.629 216.776 201.372 218.524C203.115 220.273 207.535 228.713 209.637 232.496L226.432 239.302C233.716 236.054 252.954 230.705 261.164 230.032C269.374 229.358 275.262 238.936 277.728 242.72C280.277 242.001 285.81 241.019 287.991 241.878C293.007 243.855 291.764 246.684 292.342 248.429" stroke="#D7CED5" stroke-linecap="round" stroke-dasharray="3 3"/>
<path d="M184.723 243.974C192.721 247.267 207.48 259.13 209.983 273.036C212.572 287.425 208.262 294.895 207.312 296.781" stroke="#D7CED5" stroke-width="2"/>
<path d="M181.188 245.558C189.186 248.851 203.324 259.778 205.826 273.684C208.416 288.072 205.204 293.361 204.254 295.247" stroke="#D7CED5" stroke-linecap="round" stroke-dasharray="3 3"/>
<path d="M257.168 258.571C254.406 257.182 248.856 255.855 246.031 260.064C242.394 265.481 246.435 274.449 254.737 272.076C258.196 271.087 258.531 267.437 259.117 265.55" stroke="#D7CED5" stroke-width="2"/>
<path d="M262.886 290.895C260.124 289.507 255.555 289.218 252.729 293.427C248.778 299.313 256.645 307.889 262.965 304.571C266.681 302.62 266.905 300.006 266.693 297.172" stroke="#D7CED5" stroke-width="2"/>
<path d="M277.582 308.102C274.545 307.521 270.767 309.016 269.203 313.836C267.017 320.578 276.933 326.68 282.101 321.762C285.139 318.87 284.639 316.294 283.657 313.625" stroke="#D7CED5" stroke-width="2"/>
</svg>
