<?xml version="1.0" encoding="utf-8"?>
<!-- Generator: Adobe Illustrator 20.0.0, SVG Export Plug-In . SVG Version: 6.00 Build 0)  -->
<svg version="1.1" id="Layer_1" xmlns="http://www.w3.org/2000/svg" xmlns:xlink="http://www.w3.org/1999/xlink" x="0px" y="0px"
	 viewBox="0 0 155.906 155.906" enable-background="new 0 0 155.906 155.906" xml:space="preserve">
<rect x="-0.036" y="0.058" fill="#8E0B56" width="155.906" height="155.905"/>
<g>
	<path fill="#FFFFFF" d="M57.531,114.248h-8.606L34.22,92.358l-8.271,8.02v13.87h-7.102V52.086h7.102v38.433L45.583,71.22h10.444
		L39.401,87.345L57.531,114.248z"/>
	<path fill="#FFFFFF" d="M90.366,114.248c-0.279-0.612-0.515-1.337-0.71-2.173c-0.195-0.835-0.321-1.754-0.376-2.756
		c-1.56,1.893-3.58,3.355-6.058,4.386c-2.479,1.029-5.389,1.546-8.731,1.546c-2.229,0-4.359-0.25-6.392-0.753
		c-2.034-0.501-3.816-1.295-5.348-2.38c-1.532-1.086-2.757-2.465-3.676-4.136c-0.919-1.672-1.379-3.677-1.379-6.017
		c0-4.454,1.532-7.74,4.596-9.859c3.063-2.116,7.379-3.312,12.95-3.592c2.617-0.111,4.817-0.32,6.6-0.627
		c1.782-0.305,3.217-0.709,4.303-1.21c1.086-0.502,1.866-1.086,2.34-1.756c0.472-0.668,0.71-1.42,0.71-2.255
		c0-1.726-0.836-3.161-2.507-4.303c-1.671-1.141-4.345-1.712-8.021-1.712c-1.115,0-2.298,0.111-3.551,0.334
		c-1.253,0.223-2.41,0.613-3.467,1.17c-1.059,0.556-1.978,1.337-2.757,2.338c-0.78,1.003-1.253,2.284-1.42,3.844H60.12
		c0.278-4.345,2.06-7.797,5.347-10.36c3.286-2.561,7.714-3.844,13.285-3.844c5.792,0,10.137,1.226,13.034,3.677
		c2.896,2.451,4.345,5.681,4.345,9.691v23.729c0,1.114,0.125,2.354,0.376,3.719c0.25,1.365,0.543,2.464,0.877,3.3h-7.018V114.248z
		 M89.197,91.105c-1.444,1.281-3.33,2.13-5.662,2.549c-2.332,0.417-4.774,0.709-7.328,0.876c-2.332,0.167-4.234,0.474-5.704,0.92
		c-1.471,0.447-2.637,1.002-3.497,1.671c-0.86,0.668-1.443,1.42-1.748,2.256c-0.305,0.835-0.458,1.699-0.458,2.589
		c0,1.17,0.264,2.173,0.792,3.008c0.527,0.836,1.248,1.533,2.164,2.089c0.917,0.558,1.971,0.961,3.165,1.212
		c1.193,0.25,2.483,0.376,3.872,0.376c1.831,0,3.608-0.209,5.329-0.626c1.72-0.419,3.246-1.057,4.58-1.923
		c1.331-0.863,2.4-1.991,3.204-3.383c0.804-1.391,1.235-3.063,1.292-5.014L89.197,91.105L89.197,91.105z"/>
	<path fill="#FFFFFF" d="M125.456,77.235c-1.838-0.111-3.593,0.056-5.263,0.501c-1.671,0.447-3.134,1.17-4.387,2.173
		s-2.256,2.284-3.008,3.844c-0.752,1.559-1.128,3.425-1.128,5.597v24.899h-7.102V71.22h6.851v4.845
		c0.835-1.17,1.797-2.158,2.882-2.966c1.086-0.807,2.256-1.448,3.509-1.921c1.253-0.473,2.534-0.794,3.844-0.961
		c1.308-0.167,2.576-0.167,3.801,0L125.456,77.235L125.456,77.235z"/>
	<path fill="#FFFFFF" d="M129.883,56.264h7.102v8.439h-7.102V56.264z M129.883,71.22h7.102v43.028h-7.102V71.22z"/>
</g>
<g>
	<polygon fill="#FFFFFF" points="63.007,49.939 67.344,49.939 67.344,57.13 70.271,57.13 70.271,49.939 74.626,49.939 
		74.626,47.689 63.007,47.689 	"/>
	<path fill="#FFFFFF" d="M90.117,47.767h-6.953c-1.012,0-1.701,0.146-2.067,0.439c-0.427,0.342-0.64,1-0.64,1.976v4.61
		c0,0.976,0.213,1.635,0.64,1.976c0.366,0.293,1.055,0.439,2.067,0.439h6.953c1.012,0,1.702-0.146,2.068-0.439
		c0.427-0.341,0.64-1,0.64-1.976v-4.61c0-0.976-0.214-1.634-0.64-1.976C91.819,47.914,91.13,47.767,90.117,47.767z M89.898,54.885
		h-6.514v-4.867h6.514V54.885z"/>
	<polygon fill="#FFFFFF" points="41.301,25.648 33.745,25.648 33.745,24.148 38.099,24.148 38.099,21.97 33.745,21.97 
		33.745,20.708 41.209,20.708 41.209,18.531 30.817,18.531 30.817,27.972 41.301,27.972 	"/>
	<polygon fill="#FFFFFF" points="92.041,22.007 95.645,27.972 98.975,27.972 93.102,18.531 91.163,18.531 85.545,27.972 
		88.601,27.972 	"/>
	<path fill="#FFFFFF" d="M62.573,27.972h5.636c1.012,0,1.701-0.146,2.067-0.439c0.427-0.341,0.64-1,0.64-1.976v-1.318l-2.927-0.567
		v1.976h-5.196v-4.867h5.196v1.72l2.927-0.44v-1.116c0-0.976-0.214-1.634-0.64-1.976c-0.366-0.293-1.055-0.439-2.067-0.439h-5.636
		c-1.012,0-1.701,0.146-2.067,0.439c-0.427,0.342-0.64,1-0.64,1.976v4.61c0,0.976,0.213,1.635,0.64,1.976
		C60.872,27.826,61.56,27.972,62.573,27.972z"/>
	<path fill="#FFFFFF" d="M121.67,22.739c0.085-0.073,0.22-0.177,0.403-0.311c0,0.061,0,0.153,0,0.275
		c-0.012,0.134-0.018,0.231-0.018,0.292v4.977h2.708v-9.441h-1.996l-7.044,5.507c-0.025,0.012-0.061,0.037-0.109,0.073
		c0.012-0.146,0.018-0.268,0.018-0.366V18.53h-2.708v9.441h1.994L121.67,22.739z"/>
	<path fill="#FFFFFF" d="M40.477,32.943h-6.953c-1.012,0-1.701,0.146-2.067,0.439c-0.427,0.342-0.64,1-0.64,1.976v4.611
		c0,0.976,0.213,1.635,0.64,1.976c0.366,0.293,1.055,0.439,2.067,0.439h6.953c1.012,0,1.702-0.146,2.068-0.439
		c0.427-0.341,0.64-1,0.64-1.976v-4.61c0-0.976-0.214-1.634-0.64-1.976C42.179,33.089,41.49,32.943,40.477,32.943z M40.258,40.06
		h-6.514v-4.867h6.514V40.06z"/>
	<path fill="#FFFFFF" d="M100.186,37.554c0.561-0.33,0.842-0.829,0.842-1.501v-1.079c0-0.769-0.231-1.311-0.695-1.628
		c-0.39-0.268-0.988-0.403-1.793-0.403h-8.453v9.441h7.868c2.098,0,3.147-0.683,3.147-2.049v-1.134
		C101.101,38.432,100.796,37.883,100.186,37.554z M92.977,35.047h4.849c0.293,0,0.439,0.098,0.439,0.293v0.823
		c0,0.195-0.146,0.293-0.439,0.293h-4.849V35.047z M98.32,39.676c0,0.208-0.068,0.341-0.201,0.402
		c-0.085,0.037-0.25,0.055-0.494,0.055h-4.648v-1.555h4.647c0.244,0,0.403,0.018,0.476,0.055c0.147,0.049,0.22,0.177,0.22,0.384
		V39.676z"/>
	<path fill="#FFFFFF" d="M118.094,36.767c-0.39-0.268-0.988-0.402-1.793-0.402h-5.562v-3.422h-2.891v9.441h8.453
		c0.806,0,1.403-0.134,1.793-0.403c0.464-0.317,0.695-0.86,0.695-1.628v-1.957C118.789,37.627,118.558,37.084,118.094,36.767z
		 M115.935,39.841c0,0.231-0.183,0.348-0.549,0.348h-4.647v-1.647h4.647c0.366,0,0.549,0.122,0.549,0.366V39.841z"/>
	<path fill="#FFFFFF" d="M63.663,40.353v-1.957c0-0.769-0.231-1.311-0.695-1.629c-0.39-0.268-0.988-0.402-1.793-0.402h-5.562v-1.196
		h6.997v-2.324H52.602v9.441h0.12v0.098h8.453c0.806,0,1.403-0.134,1.793-0.403C63.432,41.664,63.663,41.122,63.663,40.353z
		 M60.809,39.841c0,0.231-0.183,0.348-0.549,0.348h-4.647v-1.647h4.647c0.366,0,0.549,0.122,0.549,0.366V39.841z"/>
	<path fill="#FFFFFF" d="M82.135,40.846v-7.903h-2.89v2.384h-0.001v1.011h-4.849c-0.247,0-0.366-0.085-0.405-0.224v-1.095
		l-0.001-2.054v-0.049h-2.89v4.02c0.096,0.499,0.275,0.875,0.556,1.099c0.366,0.293,1.055,0.439,2.068,0.439l2.098-0.014h3.422
		v1.673h-4.646c-0.244,0-0.409-0.018-0.494-0.055c-0.134-0.061-0.201-0.195-0.201-0.402v-0.431l-2.781,0.286v0.803
		c0,1.367,1.049,2.049,3.147,2.049h4.842h0.401c1.012,0,1.702-0.146,2.068-0.439C81.859,41.721,82.038,41.345,82.135,40.846z"/>
	<path fill="#FFFFFF" d="M124.21,39.594h-1.774c-0.427,0-0.696,0.052-0.805,0.155c-0.11,0.104-0.165,0.357-0.165,0.759v0.988
		c0,0.439,0.104,0.713,0.311,0.823c0.122,0.073,0.427,0.11,0.915,0.11l-1.555,2.433h1.903l1.976-2.579v-1.774
		C125.016,39.899,124.747,39.594,124.21,39.594z"/>
</g>
</svg>
